<?xml version="1.0" encoding="UTF-8"?>
<svg width="126px" height="126px" viewBox="0 0 126 126" version="1.1" xmlns="http://www.w3.org/2000/svg" xmlns:xlink="http://www.w3.org/1999/xlink">
    <title>non-custodial</title>
    <g id="non-custodial" stroke="none" stroke-width="1" fill="none" fill-rule="evenodd">
        <path d="M62.3178748,19.4200535 C81.0955563,19.4200535 96.3178748,34.642372 96.3178748,53.4200535 C96.3178748,72.197735 81.0955563,87.4200535 62.3178748,87.4200535 C60.8208285,87.4200535 59.3463802,87.3232998 57.9004419,87.1357046 C58.0421796,88.0418781 58.1151841,88.9710054 58.1151841,89.9171838 C58.1151841,99.8583093 50.0563096,107.917184 40.1151841,107.917184 C30.1740586,107.917184 22.1151841,99.8583093 22.1151841,89.9171838 C22.1151841,81.9709778 27.2641844,75.2273852 34.4077332,72.8408582 C30.5686054,67.3352359 28.3178748,60.6404878 28.3178748,53.4200535 C28.3178748,34.642372 43.5401933,19.4200535 62.3178748,19.4200535 Z M95.3556232,80.1014817 C98.9454741,80.1014817 101.855623,83.0116309 101.855623,86.6014817 C101.855623,90.1913326 98.9454741,93.1014817 95.3556232,93.1014817 C91.7657724,93.1014817 88.8556232,90.1913326 88.8556232,86.6014817 C88.8556232,83.0116309 91.7657724,80.1014817 95.3556232,80.1014817 Z" id="Combined-Shape-Copy" fill="#979797" opacity="0.100000001" transform="translate(61.985404, 63.668619) rotate(-105.000000) translate(-61.985404, -63.668619) "></path>
        <g id="Group-2" transform="translate(31.000000, 48.000000)" stroke="#FC7227" stroke-width="3">
            <ellipse id="Oval-Copy-10" cx="15.2" cy="15" rx="13.7" ry="13.5"></ellipse>
            <polyline id="Line" stroke-linecap="round" stroke-linejoin="round" points="30.8 15.3947368 66 15.3947368 66 25.5590254"></polyline>
            <line x1="54.6009947" y1="15.3947368" x2="54.6009947" y2="23.3202263" id="Path-5" stroke-linecap="round"></line>
        </g>
    </g>
</svg>