<?xml version="1.0" encoding="UTF-8"?>
<svg width="126px" height="126px" viewBox="0 0 126 126" version="1.1" xmlns="http://www.w3.org/2000/svg" xmlns:xlink="http://www.w3.org/1999/xlink">
    <title>nft</title>
    <defs>
        <filter color-interpolation-filters="auto" id="filter-1">
            <feColorMatrix in="SourceGraphic" type="matrix" values="0 0 0 0 0.988235 0 0 0 0 0.447059 0 0 0 0 0.152941 0 0 0 1.000000 0"></feColorMatrix>
        </filter>
    </defs>
    <g id="nft" stroke="none" stroke-width="1" fill="none" fill-rule="evenodd">
        <path d="M81.5,41.5 C99.7253967,41.5 114.5,56.2746033 114.5,74.5 C114.5,92.7253967 99.7253967,107.5 81.5,107.5 C63.2746033,107.5 48.5,92.7253967 48.5,74.5 C48.5,56.2746033 63.2746033,41.5 81.5,41.5 Z M39.5,18 C44.1944204,18 48,21.8055796 48,26.5 C48,31.1944204 44.1944204,35 39.5,35 C34.8055796,35 31,31.1944204 31,26.5 C31,21.8055796 34.8055796,18 39.5,18 Z" id="Combined-Shape" fill="#8C8C8C" opacity="0.100000001"></path>
        <g filter="url(#filter-1)" id="milo-venus">
            <g transform="translate(49.000000, 24.000000)">
                <path d="M35.8730605,91.1567233 C35.8957988,91.1062309 35.9151618,91.054301 35.9318602,91.0014727 C35.9361236,90.9881757 35.9393212,90.9746991 35.9430517,90.9612225 C35.9544208,90.9216911 35.9641911,90.8816206 35.9720074,90.8411908 C35.9753826,90.8243001 35.9784025,90.8074094 35.9810671,90.790339 C35.9878175,90.7479326 35.9926139,90.7053465 35.9956338,90.6625807 C35.9963444,90.650901 35.9979432,90.6394009 35.9984761,90.6277212 C36.0009631,90.5721975 36.0004302,90.5164942 35.9966997,90.4606112 C35.9961667,90.453783 35.9951009,90.4467752 35.9943903,90.439947 C35.9903045,90.3916109 35.9837318,90.3432748 35.974672,90.2951183 C35.972185,90.281462 35.9691651,90.2679854 35.9661452,90.2543291 C35.9567301,90.2112039 35.945361,90.1684381 35.9318602,90.1260317 C35.927952,90.1134536 35.9243992,90.1010551 35.9201358,90.0886566 C35.9013057,90.0340314 35.8799886,89.9801249 35.8540528,89.9271169 C35.8030694,89.8202024 33.3569327,84.6090648 34.5567299,77.880101 C35.6593566,71.6954128 36.1201612,66.710862 35.9094772,62.3020323 C35.9112536,62.2409383 35.9077008,62.1789458 35.9014833,62.1167737 C35.66664,57.6198968 34.7262008,53.7183268 33.0432161,49.7463191 C30.267908,43.1959653 31.0626804,34.6584398 31.588502,29.0090427 C31.6400184,28.455603 31.68887,27.9305541 31.7315042,27.4383881 C31.7437616,27.2969735 31.7345241,27.1589729 31.7080554,27.0267224 C32.4454493,26.4123684 32.9762449,25.5881386 33.1355902,24.692393 C33.4931845,22.6829398 32.8149456,20.5985566 31.3213278,19.116668 C30.2158588,18.0198512 27.6560309,16.3219774 22.9314521,17.278278 C18.6641249,18.1416798 17.2444064,15.7827331 16.4924459,12.9012531 C17.4080151,11.6560138 19.0403717,8.76123689 17.5185087,5.45479426 C16.4592267,3.15298838 15.0084208,0.000169496332 10.4200937,0.000169496332 L10.1388857,0.000169496332 C7.45328696,-0.00215676994 3.77448928,-0.00736772782 2.20466286,1.97746816 C0.775884564,3.78423304 -0.0632984134,9.07820688 0.572306306,12.2764772 C0.901655425,13.9335618 1.59517159,15.0643397 2.63384705,15.6373653 C3.40019661,16.0601717 4.10881238,16.3785792 4.7339362,16.6594318 C5.17377893,16.8570889 5.55073623,17.0267145 5.87315729,17.1936449 C5.93977321,17.2423404 6.01065255,17.2867234 6.0873941,17.3240985 C6.13340349,17.3465595 6.17834703,17.367044 6.22400115,17.3886066 C7.14596551,17.942765 7.50924434,18.5756268 7.57923547,20.1885081 C7.62222494,21.1782308 5.32530795,23.3907316 2.41765617,26.191891 L2.3345195,26.2720319 C0.111146482,28.4137356 -0.528188729,32.2869149 0.434100472,37.7839364 C0.730941022,39.4800133 1.11980037,40.9493237 1.39372504,41.8831633 C1.39710024,41.8946634 1.40012017,41.9047259 1.40349537,41.916226 C1.45554461,42.6655258 1.70690869,43.3699035 2.13857987,43.9368198 C2.29330645,44.1772426 2.46668549,44.3130869 2.70987802,44.425392 C2.71840486,44.4293452 2.72675405,44.4336577 2.73528089,44.4374311 C2.73918902,44.439228 2.74274187,44.4412046 2.74682765,44.4428218 C3.55083742,44.7973466 4.40458708,44.9545738 5.25638267,44.9545738 C7.37601249,44.9545738 9.47983214,43.9792262 10.7673847,42.6448616 C10.7840831,45.2878954 9.26932583,49.2306139 7.71335552,52.5755098 C5.73583967,56.826214 5.21392612,62.8876361 5.13025652,67.3095831 C4.47884163,67.6700376 3.91997845,68.0031796 3.48084629,68.2993057 C2.71289794,68.8171671 1.89361092,69.4521852 1.89361092,70.4375953 C1.89361092,72.4438141 2.99677059,73.4171851 3.80237914,74.1280317 C3.86153408,74.1803209 3.91962317,74.2315321 3.97646875,74.2823838 C4.03278141,74.3362903 4.08980464,74.3887592 4.14771608,74.4388922 C4.44029321,74.7123777 4.69005851,74.9880194 4.86308227,75.3452395 C5.21019563,76.3054933 6.52155227,83.9291247 7.59557857,90.7872843 C7.70500633,91.4857324 8.30010857,92 8.99913164,92 L34.5782246,92 C34.5791128,92 34.5800011,92 34.5810669,92 C34.602384,92 34.6235235,91.9965859 34.6448406,91.9956875 C34.6851654,91.9938906 34.7256679,91.9926328 34.7654598,91.9874218 C34.793172,91.9836484 34.8207066,91.9764608 34.8482412,91.9710702 C34.8821709,91.9644217 34.9162782,91.9586717 34.9493197,91.9496873 C34.9761437,91.9423201 35.0022572,91.9320779 35.0289036,91.9232731 C35.0626556,91.9117731 35.0965853,91.9006324 35.1294492,91.8866167 C35.1539638,91.8761948 35.1777679,91.8637963 35.2019273,91.8517572 C35.2362123,91.8348665 35.270142,91.8172571 35.3028282,91.7974914 C35.3127762,91.7915617 35.3230795,91.7876085 35.3328498,91.7813195 C35.3527458,91.7687413 35.3706876,91.7545459 35.3896954,91.741249 C35.4035515,91.7313661 35.4177629,91.722202 35.4314414,91.7117801 C35.5222167,91.6431392 35.6026887,91.5651545 35.6726798,91.4799823 C35.679075,91.4720761 35.6849372,91.4638104 35.6911546,91.4559041 C35.7204656,91.4187087 35.7476449,91.3802554 35.7728702,91.340724 C35.7767783,91.3346146 35.7815747,91.3294036 35.7853051,91.3231145 C35.7885027,91.3179036 35.7908121,91.3123332 35.793832,91.3071223 C35.8195901,91.2641768 35.8432166,91.2201532 35.8641784,91.1748718 C35.866843,91.1687624 35.8703959,91.1628327 35.8730605,91.1567233 Z M10.2849078,53.7993662 C12.3876616,49.2794891 13.4751887,45.8111474 13.6100193,43.1957856 C13.6599368,42.2281647 13.577866,41.3608097 13.3666491,40.595338 C14.2166683,40.5112439 14.9052105,40.2941805 15.2846548,40.1150314 C15.9957575,39.7793738 16.3032566,38.924058 15.9714205,38.2045864 C15.6395844,37.4849352 14.7940063,37.1738949 14.0825483,37.5099118 C14.0628299,37.5190759 11.9593656,38.334501 10.288283,36.9165814 C10.2643012,36.8962766 10.2392537,36.8784875 10.2145614,36.8601593 C9.30574253,35.9897496 8.99913164,34.9333627 8.99913164,33.0624491 L8.99913164,31.8571007 C8.99913164,31.0632382 8.36281636,30.419595 7.57799197,30.419595 C6.79316759,30.419595 6.1568523,31.0632382 6.1568523,31.8571007 L6.1568523,33.0624491 C6.1568523,36.2795867 7.0296097,38.1993755 9.23823839,39.7454128 C9.23290912,40.031117 8.99273652,40.3518605 8.82450911,40.5416112 C7.89312969,41.5915294 5.96073502,42.350173 4.40369887,41.980734 C4.35662361,41.8393194 4.30226502,41.6693344 4.24328773,41.4788649 C4.25003814,41.4104037 4.26016376,41.3403253 4.27775036,41.2671922 C4.34898499,40.9725035 4.5737027,40.434517 5.27681155,40.1416253 C6.002481,39.8393897 6.34870615,38.9993474 6.04991154,38.2651414 C5.75111692,37.5311151 4.92081607,37.1810824 4.19479133,37.4831383 C3.89457558,37.6082013 3.61461106,37.7618347 3.3545425,37.9384682 C3.23996312,37.3534034 3.13515407,36.7365338 3.0507739,36.1022345 C2.55213151,32.3586104 2.99410595,29.6066856 4.29498168,28.3533604 L4.37829599,28.2732195 C8.46673719,24.3346337 10.5188629,22.3577041 10.4192055,20.0620077 C10.3895392,19.3775753 10.3040932,18.7831667 10.1735259,18.2599147 C11.2454205,18.1835472 11.9506611,17.8313583 12.2949322,17.6590373 C12.9982187,17.3064891 13.2859995,16.4441654 12.937465,15.7326001 C12.5891081,15.0213942 11.7366019,14.7308384 11.0331378,15.0826679 C10.6023548,15.2986531 9.60507007,15.7922566 7.48934838,14.8107996 C6.98093567,14.5231188 6.43841559,14.2789225 5.8882569,14.0316716 C5.28462782,13.7603424 4.66021458,13.4800288 3.99529885,13.1131055 C3.81019541,13.0110426 3.53271789,12.5823065 3.35933885,11.7097406 C2.80793666,8.93499538 3.74713234,4.62966604 4.42466068,3.77309237 C5.13967158,2.86890134 8.63993859,2.87231541 10.1358657,2.8747106 L10.420449,2.8747106 C13.0678545,2.8747106 13.8274537,4.24549266 14.9423378,6.66750995 C16.0986125,9.1799104 14.0079384,11.4540443 13.9239135,11.5438884 C13.5894128,11.8928429 13.4519175,12.3891417 13.5583254,12.8633389 C13.9143208,14.4472904 14.5017845,16.4671655 15.8969883,18.0392576 C17.6913548,20.0612889 20.2462087,20.7530885 23.4896047,20.0972265 C26.0401951,19.581162 28.1152367,19.9615619 29.3317322,21.168887 C30.1410713,21.9719136 30.5270884,23.1267696 30.338965,24.1829769 C30.2751913,24.5410955 29.683642,25.1313712 28.9968762,25.2131294 C28.3298288,25.2950672 27.7773607,24.837581 27.3551046,23.861335 C27.0404998,23.1341369 26.2023827,22.8020731 25.4834636,23.1206602 C24.764367,23.4388881 24.436439,24.2864773 24.7510438,25.0138552 C25.5959113,26.9670659 27.093082,28.0858047 28.8190561,28.09425 C28.7996931,28.3050243 28.7797971,28.5192126 28.7591906,28.7393307 C28.2063673,34.6791039 27.3707371,43.6554281 30.4313391,50.8787141 C31.1687329,52.6191741 31.7512225,54.351009 32.1823608,56.1410629 C31.4232946,56.2966728 30.2574271,56.6465258 28.3413755,57.3210753 C25.9734016,58.1551879 22.8566646,59.3589192 19.5653051,60.7110729 C15.7618024,62.2734618 11.3985483,64.1706099 8.01996641,65.8206867 C8.23153858,60.6821431 9.00641499,56.5478769 10.2849078,53.7993662 Z M7.83894874,75.5730842 C10.1037125,75.4670681 12.6994241,74.3724076 15.1313493,73.1636451 C15.8357017,72.8136124 16.1263248,71.9521872 15.7800996,71.2395438 C15.4338744,70.5270801 14.5822565,70.2331102 13.8779041,70.5835022 C9.61839326,72.7004089 7.01983936,73.2268953 5.93213459,72.194946 C5.84295807,72.114266 5.75502505,72.0359219 5.67064489,71.961531 C5.14162564,71.494701 4.88209001,71.2479891 4.78403137,70.876933 C5.90850814,70.0304219 10.121832,67.7889912 18.5115301,64.2577587 C25.4227099,61.3487863 31.1490146,59.2784189 32.7273679,58.9574957 C32.8321769,59.6654673 32.9144254,60.3874545 32.9762449,61.1256136 C29.4365413,62.0450781 25.4656994,64.1742037 21.6691248,66.3065636 C20.9828919,66.6919947 20.735436,67.5670763 21.1164791,68.2612118 C21.3761923,68.7343309 21.8606233,69.0009882 22.3601539,69.0009882 C22.5933985,69.0009882 22.8301959,68.9427692 23.0486961,68.8200421 C26.3260218,66.9794959 29.993628,64.9984334 33.1094768,64.0689064 C33.1439394,67.8671556 32.6875759,72.1651177 31.7597494,77.3697865 C31.6535192,77.9654529 31.5732248,78.5499786 31.5138922,79.1224653 C30.6384702,75.7322879 30.3112528,73.1837701 30.3050353,73.1343559 C30.2076872,72.3464231 29.4960515,71.7875928 28.7186881,71.8862416 C27.9399036,71.9847108 27.3874355,72.7032839 27.4847836,73.491037 C27.5320365,73.8739525 28.5836798,82.1034925 32.1447006,89.1251684 L14.9087633,89.1251684 C14.9082304,89.0838402 14.9078751,89.0439494 14.9073422,89.002082 C14.8698596,85.8555619 14.8071518,80.5894397 15.9545445,78.2680478 C16.305566,77.5579201 16.0209828,76.6943386 15.3189398,76.3394544 C14.6168968,75.9845702 13.7633248,76.272251 13.4123033,76.9821991 C11.9565233,79.9272887 12.0194087,85.1923327 12.0652405,89.0369415 C12.0655958,89.0669495 12.0659511,89.0953402 12.0663063,89.1251684 L10.2117191,89.1251684 C9.58410826,85.1578326 8.50830553,78.5620177 7.83894874,75.5730842 Z" id="Shape" fill="#000000" fill-rule="nonzero"></path>
                <path d="M22.148937,39.0929649 C24.1264529,39.0929649 25.9451564,38.2955087 27.1017865,36.8371592 C27.5929679,36.2179537 27.4949092,35.3132236 26.8827533,34.816206 C26.270775,34.3195478 25.3761676,34.4187357 24.8849862,35.0377615 C24.044915,36.0970235 22.3883991,36.4887438 20.7624377,36.0140076 C20.0087007,35.7931708 19.2205011,36.2334069 19.0027115,36.9960036 C18.7847442,37.75878 19.2196129,38.5556972 19.9735275,38.7759949 C20.7038156,38.9892848 21.4365908,39.0929649 22.148937,39.0929649 Z" id="Path" fill="#000000" fill-rule="nonzero"></path>
            </g>
        </g>
    </g>
</svg>