<?xml version="1.0" encoding="UTF-8"?>
<svg width="126px" height="126px" viewBox="0 0 126 126" version="1.1" xmlns="http://www.w3.org/2000/svg" xmlns:xlink="http://www.w3.org/1999/xlink">
    <title>swap</title>
    <g id="swap" stroke="none" stroke-width="1" fill="none" fill-rule="evenodd">
        <path d="M63.5,17 C83.1061086,17 99,32.8938914 99,52.5 C99,72.1061086 83.1061086,88 63.5,88 C61.8754939,88 60.2764732,87.8908836 58.7098675,87.6795801 C58.9007894,88.756713 59,89.8667706 59,91 C59,101.49341 50.4934102,110 40,110 C29.5065898,110 21,101.49341 21,91 C21,82.4552452 26.6405492,75.2279112 34.4013363,72.8383096 C30.3668118,67.078916 28,60.0658573 28,52.5 C28,32.8938914 43.8938914,17 63.5,17 Z M97.5,81 C101.089851,81 104,83.9101491 104,87.5 C104,91.0898509 101.089851,94 97.5,94 C93.9101491,94 91,91.0898509 91,87.5 C91,83.9101491 93.9101491,81 97.5,81 Z" id="Combined-Shape" fill="#979797" opacity="0.100000001"></path>
        <g id="Group" transform="translate(38.000000, 43.000000)" fill="#FC7227" fill-rule="nonzero">
            <path d="M36.3890709,21.5660913 L36.4824006,21.614366 L51.2175938,29.8754507 C52.2271502,30.4414446 52.2597165,31.8616841 51.3152928,32.4827907 L51.2175938,32.5421763 L36.4824006,40.803261 C35.7435567,41.2174837 34.8076953,40.9563107 34.3920956,40.2199148 C33.9938126,39.514202 34.2178768,38.6281472 34.8875234,38.1909622 L34.977381,38.1365353 L44.6053889,32.738644 L9.63631944,32.738644 C8.78860876,32.738644 8.10140347,32.0537155 8.10140347,31.2088135 C8.10140347,30.3977075 8.73473186,29.7340332 9.53539829,29.6822371 L9.63631944,29.678983 L44.6060028,29.678983 L34.977381,24.2810916 C34.2693223,23.8841282 33.9991605,23.010938 34.3436605,22.2907327 L34.3920956,22.1977122 C34.7903786,21.4919994 35.6664715,21.2227327 36.3890709,21.5660913 L36.3890709,21.5660913 Z" id="Path-8"></path>
            <path d="M31.0458739,0.148464345 L31.1392036,0.19673898 L45.8743969,8.45782367 C46.8839532,9.02381763 46.9165195,10.4440571 45.9720959,11.0651637 L45.8743969,11.1245493 L31.1392036,19.385634 C30.4003597,19.7998568 29.4644983,19.5386838 29.0488986,18.8022878 C28.6506156,18.096575 28.8746798,17.2105202 29.5443264,16.7733352 L29.634184,16.7189084 L39.2620394,11.321017 L1.53491596,11.321017 C0.687205284,11.321017 0,10.6360886 0,9.79118651 C0,8.98008054 0.63332839,8.31640625 1.43399482,8.26461007 L1.53491596,8.26135601 L39.2626534,8.26135601 L29.634184,2.86346466 C28.9261253,2.46650121 28.6559635,1.59331101 29.0004635,0.873105735 L29.0488986,0.780085222 C29.4471817,0.0743724249 30.3232745,-0.194894291 31.0458739,0.148464345 L31.0458739,0.148464345 Z" id="Path-8-Copy" transform="translate(23.328402, 9.791187) scale(-1, 1) translate(-23.328402, -9.791187) "></path>
        </g>
    </g>
</svg>